Coordinates
version=1
nRows=13
nColumns=38
inDegrees=no

Units are S.I. units (second, meters, Newtons, ...)
If the header above contains a line with 'inDegrees', this indicates whether rotational values are in degrees (yes) or radians (no).

endheader
time	pelvis_tilt	pelvis_list	pelvis_rotation	pelvis_tx	pelvis_ty	pelvis_tz	hip_flexion_r	hip_adduction_r	hip_rotation_r	knee_angle_r	ankle_angle_r	subtalar_angle_r	mtp_angle_r	hip_flexion_l	hip_adduction_l	hip_rotation_l	knee_angle_l	ankle_angle_l	subtalar_angle_l	mtp_angle_l	lumbar_extension	lumbar_bending	lumbar_rotation	arm_flex_r	arm_add_r	arm_rot_r	elbow_flex_r	pro_sup_r	wrist_flex_r	wrist_dev_r	arm_flex_l	arm_add_l	arm_rot_l	elbow_flex_l	pro_sup_l	wrist_flex_l	wrist_dev_l
1.68	1.65179	1.51441	0.119028	0.621306	1.25631	0.922135	0.534718	-0.0910834	-0.34608	0.503885	0.034416	0	0	-0.136105	-0.0947105	-0.0318383	0.79317	0.108575	0	0	-0.0374509	0.0262304	-0.276016	-0.0992985	-0.151741	-0.0546758	0.314172	1.40376	0	0	-0.214098	-0.465779	0.599695	0.719603	0.768348	0	0
1.69	1.68559	1.50865	0.0842655	0.621992	1.27015	0.923133	0.530297	-0.0850859	-0.345048	0.526231	0.0260802	0	0	-0.104271	-0.103406	-0.0250013	0.861152	0.0519366	0	0	-0.0385211	0.0357807	-0.279282	-0.104137	-0.161642	0.0117483	0.332274	1.31736	0	0	-0.222733	-0.46657	0.604436	0.729196	0.727977	0	0
1.7	1.70133	1.50397	0.0675607	0.622996	1.28372	0.924001	0.522139	-0.0785158	-0.347425	0.539658	0.0209335	0	0	-0.0696248	-0.111229	-0.0185036	0.928643	-0.00618031	0	0	-0.0394979	0.0427179	-0.281753	-0.101834	-0.160996	0.00545094	0.333834	1.32971	0	0	-0.230749	-0.467077	0.602135	0.735235	0.720372	0	0
1.71	1.68364	1.49999	0.0845044	0.624189	1.29696	0.924686	0.512071	-0.0713151	-0.352328	0.545101	0.0203746	0	0	-0.0310306	-0.118451	-0.0123984	0.9936	-0.0690064	0	0	-0.0377649	0.0475479	-0.283451	-0.101269	-0.159584	0.00032443	0.337376	1.33851	0	0	-0.236455	-0.469733	0.605518	0.740028	0.710057	0	0
1.72	1.66331	1.49706	0.103569	0.625483	1.3099	0.92548	0.499199	-0.0637371	-0.357053	0.544498	0.0237265	0	0	0.00747795	-0.12433	-0.00727966	1.05233	-0.134284	0	0	-0.035867	0.0506131	-0.282414	-0.103274	-0.157582	-0.00636402	0.345048	1.34398	0	0	-0.237736	-0.473908	0.616115	0.74137	0.700295	0	0
1.73	1.6491	1.49508	0.115356	0.626859	1.32261	0.92657	0.484465	-0.0557022	-0.359531	0.540686	0.0297113	0	0	0.0440052	-0.128355	-0.00308735	1.10354	-0.20071	0	0	-0.0345936	0.0523464	-0.278741	-0.106252	-0.155136	-0.0144376	0.354853	1.34872	0	0	-0.235695	-0.478507	0.630839	0.739078	0.693268	0	0
1.74	1.64481	1.49352	0.115693	0.628318	1.33511	0.928093	0.468462	-0.0462945	-0.358013	0.535235	0.0367528	0	0	0.0778422	-0.130521	0.00113321	1.14887	-0.258245	0	0	-0.0341531	0.0535857	-0.273063	-0.108327	-0.1522	-0.0226532	0.363497	1.35282	0	0	-0.2321	-0.482339	0.64437	0.734748	0.689489	0	0
1.75	1.64934	1.49226	0.105578	0.6298	1.34739	0.930022	0.452899	-0.0358474	-0.351299	0.530804	0.0423615	0	0	0.110275	-0.131138	0.00506217	1.19308	-0.289215	0	0	-0.0346947	0.0546723	-0.265745	-0.108512	-0.14893	-0.0289791	0.369167	1.35464	0	0	-0.228278	-0.484746	0.653854	0.729905	0.689172	0	0
1.76	1.65664	1.49112	0.0913817	0.631234	1.35949	0.932242	0.437712	-0.0245353	-0.339831	0.526603	0.0457913	0	0	0.142423	-0.131438	0.00738807	1.23583	-0.293043	0	0	-0.0353502	0.0558855	-0.257985	-0.111116	-0.152383	0.0138087	0.382419	1.28024	0	0	-0.22558	-0.485012	0.657547	0.722539	0.704966	0	0
1.77	1.67805	1.49178	0.0626226	0.632622	1.37148	0.93479	0.420668	-0.0149519	-0.326712	0.521573	0.0492893	0	0	0.172573	-0.129837	0.00826078	1.27347	-0.279247	0	0	-0.0382706	0.0553163	-0.248353	-0.103748	-0.142862	-0.0293895	0.37135	1.3392	0	0	-0.222711	-0.48581	0.658979	0.718504	0.714053	0	0
1.78	1.71202	1.4935	0.0212464	0.633904	1.38336	0.937464	0.401304	-0.0070186	-0.314261	0.514671	0.0542311	0	0	0.201025	-0.126692	0.00833031	1.30598	-0.254086	0	0	-0.0422128	0.0535842	-0.239639	-0.0993207	-0.139603	-0.0256836	0.368577	1.32894	0	0	-0.221544	-0.486951	0.65886	0.717783	0.715551	0	0
1.79	1.74748	1.49585	-0.0217039	0.635134	1.39511	0.940154	0.380245	-0.000481224	-0.30384	0.504687	0.0598316	0	0	0.229133	-0.122288	0.00780431	1.3333	-0.225364	0	0	-0.0462841	0.0511795	-0.230458	-0.0947221	-0.136624	-0.0193699	0.364702	1.31625	0	0	-0.220034	-0.488238	0.658854	0.718172	0.712926	0	0
1.8	1.77991	1.49857	-0.0617218	0.636331	1.40669	0.942775	0.358473	0.00487839	-0.295506	0.492293	0.0655762	0	0	0.257546	-0.117061	0.00696	1.35547	-0.199194	0	0	-0.050185	0.0484409	-0.2205	-0.0909361	-0.134139	-0.0115835	0.361823	1.30176	0	0	-0.217617	-0.489674	0.659849	0.718773	0.708013	0	0
